<svg width="194" height="61" viewBox="0 0 194 61" fill="none" xmlns="http://www.w3.org/2000/svg">
<path fill-rule="evenodd" clip-rule="evenodd" d="M34.8829 49.2827L31.5083 54.1779L26.5779 61H0V0H13.8967V51.1804H15.4819V0H17.0573V51.1804H18.6424V0H20.2179V51.1804H21.803V0H23.3784V51.1902H24.9636V0.00973197H37.2752C36.9542 0.447671 36.1763 1.51819 35.7192 2.15077L35.5126 2.44003C34.9649 3.20659 34.3067 4.12769 33.6867 5.04116C32.9768 6.07275 32.1988 7.21139 31.557 8.22352C31.4477 8.39326 31.3475 8.5485 31.2538 8.69345L31.2536 8.69376C30.7892 9.41293 30.4883 9.87897 30.0594 10.6078L29.8983 10.8813C29.4651 11.6165 29.1228 12.1974 28.5326 13.2744C28.5326 13.2744 27.9102 14.4422 27.5309 15.2695C27.1516 16.1064 26.9863 16.5735 26.7529 17.2451C26.5195 17.8874 26.3931 18.7243 26.3639 19.6002C26.3639 19.6002 26.2278 21.0308 27.1711 22.8701C28.1144 24.6997 30.6915 28.5049 30.6915 28.5049L33.2199 32.242L36.3027 36.6798C36.3027 36.6798 37.3141 38.1591 38.1018 39.5215C38.2249 39.7207 38.3296 39.9198 38.4249 40.1009L38.4324 40.1152C38.4353 40.1211 38.4383 40.1279 38.4415 40.1353C38.4489 40.1523 38.4577 40.1727 38.4713 40.193C38.6366 40.5337 38.9478 41.2246 38.9478 41.7696C38.8603 43.1029 37.9462 44.5335 37.81 44.7379C37.7809 44.7768 37.7614 44.8157 37.742 44.8546L37.7419 44.8547C37.139 45.9154 34.8829 49.2827 34.8829 49.2827ZM45.0939 45.4775C44.4423 46.9081 42.1862 50.4116 41.0095 52.1536H40.9997C39.823 53.8859 34.7273 61 34.7273 61H32.6559L32.9295 60.6206L32.9296 60.6205C33.816 59.392 35.9487 56.4362 37.2168 54.6061C37.4808 54.2256 37.7305 53.8672 37.9699 53.5236L37.9725 53.5198L37.9741 53.5177C39.2143 51.7378 40.1768 50.3566 41.3985 48.3679C42.3612 46.8108 42.6919 46.2269 43.0128 45.6138C43.0225 45.604 44.5882 42.8304 44.1506 40.7672C44.1409 40.719 44.1313 40.6731 44.1217 40.6273L44.1214 40.6263L44.1049 40.5472L44.0922 40.485C43.8199 39.3074 43.1489 38.2369 43.042 38.0812C42.4098 36.9815 41.7388 36.0862 41.7388 36.0862L41.2915 35.4146L38.5005 31.2299C38.5005 31.2299 34.0854 24.6414 32.7531 22.5587C31.7223 20.9432 31.5959 19.9213 31.5959 19.5418C31.6191 18.8126 31.7907 18.2936 31.9677 17.7581C32.0128 17.6218 32.0582 17.4845 32.1016 17.3424C32.3739 16.447 33.3463 14.6953 34.455 12.7294C35.5636 10.7636 37.7225 7.59094 39.1229 5.56669C40.2877 3.87596 42.3957 1.0868 43.0679 0.197429L43.068 0.197305L43.217 0H45.2981C45.2981 0 45.0064 0.291959 42.3709 3.94145C39.7355 7.59094 37.4891 11.1528 36.75 12.3693C36.2832 13.1284 35.3691 14.851 34.737 16.048L34.7368 16.0483C34.6591 16.1942 34.5813 16.3401 34.5133 16.4762C33.7353 17.8776 33.5214 18.8119 33.4825 19.3569C33.3269 20.369 34.2896 21.7899 34.2896 21.7899C34.3091 21.8288 34.3285 21.8483 34.3285 21.8483C34.348 21.8775 34.348 21.8872 34.348 21.8872L36.9834 25.8384C36.9834 25.8384 41.8847 33.2542 43.2267 35.1811C44.5688 37.108 45.4829 38.6943 45.8719 39.7259C46.2609 40.7575 46.2706 41.7404 46.1053 42.6552C45.9399 43.5798 45.7454 44.0469 45.0939 45.4775ZM31.5472 56.9612C32.8504 55.1219 35.6511 51.1415 36.7208 49.4968L36.6917 49.526L36.8234 49.3253C37.8461 47.7676 38.7254 46.4281 39.6675 44.7573C40.6497 43.0153 40.5719 41.5361 40.5719 41.5361C40.5719 41.5361 40.601 40.5337 39.3465 38.4413C38.092 36.3489 34.9023 31.8625 34.9023 31.8625C34.9023 31.8625 32.8504 28.904 31.5375 26.8894C31.2991 26.5218 31.0731 26.1759 30.8586 25.8475L30.8582 25.8469C29.8917 24.3677 29.1568 23.2427 28.552 22.0721C27.8129 20.6415 27.9685 19.5126 27.9685 19.5126C27.9977 19.1136 28.0949 18.2183 28.445 17.284C28.9216 16.0188 29.3397 15.2597 29.3397 15.2597C29.3397 15.2597 30.108 13.6929 30.9929 12.2234C31.8779 10.7636 33.2685 8.5544 33.9104 7.60067C34.5522 6.65667 36.3416 4.05823 36.7986 3.42565C37.2071 2.85147 38.9575 0.476867 39.2979 0.0194639H41.1651C40.4941 0.914805 36.2929 6.55935 34.6689 9.25511C34.4686 9.59756 34.254 9.94718 34.0311 10.3101L33.9201 10.4911C33.2977 11.5129 32.6461 12.5932 32.0529 13.6734C31.7028 14.2379 31.4111 14.7439 31.168 15.2013C30.565 16.2719 30.2927 17.1769 30.2927 17.1769V17.1867C30.2901 17.1919 30.2875 17.1964 30.2851 17.2006C30.2785 17.212 30.2733 17.2211 30.2733 17.2353C29.3981 19.8727 30.1663 21.2157 30.1663 21.2157C30.2927 21.5563 30.4386 21.8385 30.5456 22.0332C30.7595 22.4614 31.1874 23.1524 31.5959 23.8044C31.8098 24.1548 31.9654 24.3981 31.9654 24.3981L32.5975 25.3518L32.6559 25.4394L35.6997 30.0231C35.6997 30.0231 40.2023 36.5533 41.7972 39.1615C42.264 39.9303 42.4585 40.6991 42.4974 41.3998V41.7891V41.9059C42.4585 42.5287 42.2932 43.1516 42.1376 43.5992C41.8069 44.5432 41.3498 45.3899 41.2915 45.497C40.815 46.3534 40.0856 47.531 38.977 49.1465C38.7097 49.5571 38.4701 49.916 38.3194 50.1419L38.3192 50.1422C38.2343 50.2695 38.1776 50.3544 38.1601 50.3824C35.3983 54.4504 30.6526 61 30.6526 61H28.6201L28.6909 60.9036C29.1345 60.2997 30.4748 58.4748 31.5472 56.9612ZM42.8825 8.99282L42.8826 8.99272L42.8832 8.99176C43.2322 8.47737 43.6425 7.87268 44.1409 7.13354C46.3192 3.91225 49.4311 0 49.4311 0H47.3889C47.3889 0 45.4634 2.46219 44.277 4.10689C43.0906 5.7516 41.3498 8.29164 39.6772 10.8122C38.4234 12.6906 37.7529 13.9367 37.0218 15.2955L37.0216 15.2957C36.7717 15.7602 36.5147 16.2379 36.2249 16.7585C36.2037 16.8008 36.1775 16.8431 36.1535 16.8817L36.1535 16.8818C36.1444 16.8964 36.1356 16.9105 36.1276 16.9239L36.1275 16.9241C35.9914 17.1771 35.8553 17.43 35.7386 17.6635C35.7192 17.7122 35.6608 17.8387 35.5344 18.082C35.51 18.1431 35.4856 18.1965 35.4636 18.2447C35.4505 18.2732 35.4383 18.2999 35.4274 18.3253C35.4177 18.3545 35.4056 18.3836 35.3935 18.4128L35.3934 18.4129C35.3812 18.4421 35.3691 18.4713 35.3594 18.5005C35.2621 18.8216 35.2329 19.1331 35.2427 19.425V19.4737C35.2427 19.5126 35.2427 19.5515 35.2524 19.5905C35.3496 20.3009 35.8845 21.167 36.0207 21.3714C36.103 21.5002 36.2316 21.6943 36.3922 21.9366L36.3927 21.9375L36.394 21.9394L36.3943 21.9399L36.3953 21.9413C36.5374 22.1558 36.7043 22.4078 36.8862 22.6852L37.1882 23.1437L37.1897 23.1459L37.1904 23.147L37.1908 23.1475C37.7682 24.0238 38.5533 25.2153 38.8797 25.7216C39.2687 26.325 40.883 28.7677 40.883 28.7677C40.883 28.7677 42.5265 31.2299 42.7405 31.5511C42.9544 31.8722 43.7032 32.9622 43.7032 32.9622C43.7032 32.9622 45.0161 34.8989 45.2981 35.3173C45.5801 35.7455 46.2122 36.7382 46.29 36.8744C46.29 36.8744 46.4456 37.1372 46.6693 37.546C46.9902 38.1396 47.4376 39.0447 47.671 39.833C47.69 39.8774 47.7049 39.9343 47.7238 40.0063C47.7338 40.0446 47.745 40.0873 47.7585 40.1347V40.1541C47.7752 40.2127 47.7847 40.2713 47.7933 40.3237L47.7974 40.3488C48.0405 41.6528 47.8168 42.8693 47.6126 43.6382C47.5737 43.8425 47.5056 44.0664 47.4084 44.3097V44.3194C47.2528 44.8157 46.9027 45.497 46.9027 45.497C46.7666 45.7792 46.6304 46.0614 46.4845 46.3339C46.4602 46.3777 46.4359 46.4239 46.4116 46.4702C46.3873 46.5164 46.363 46.5626 46.3387 46.6064C46.0469 47.1514 45.7649 47.6672 45.5315 48.0565C45.4388 48.2265 45.3216 48.4211 45.1896 48.6402L45.1896 48.6403L45.0842 48.8156C45.0647 48.8448 45.055 48.8642 45.055 48.8642C44.0533 50.4895 42.3223 53.0782 41.2915 54.5574C40.2023 56.1243 37.421 60.0463 36.7597 60.9708H38.7436C38.7436 60.9708 44.2089 53.195 45.0161 51.9882C45.8232 50.7814 47.5932 48.0467 48.5948 46.0712C49.5965 44.0956 49.7812 42.665 49.7715 41.2052C49.7618 39.7454 48.8574 37.9644 48.517 37.3027C48.1766 36.6506 47.175 35.1519 47.175 35.1519L43.5476 29.7701C43.5476 29.7701 38.588 22.2473 37.7517 20.8945C36.9153 19.5515 37.3238 18.4713 37.6641 17.7219C38.0045 16.9726 39.3465 14.559 40.3968 12.7781L40.4163 12.8073C41.226 11.4341 41.7063 10.7263 42.8822 8.99319L42.8824 8.99304L42.8825 8.99282ZM51.5025 0C51.5025 0 49.1491 3.03638 48.235 4.25287C47.7419 4.90386 47.2063 5.66814 46.6695 6.43417C46.2112 7.08815 45.752 7.74342 45.3176 8.33057C44.3743 9.60546 42.2737 12.9143 41.6513 13.9459C41.2489 14.613 41.0497 14.9748 40.6174 15.7604C40.3812 16.1897 40.0753 16.7455 39.6286 17.5467C39.3368 18.0723 39.1715 18.5199 39.0937 18.8995C38.977 19.4931 39.4827 20.4955 39.9106 21.2157C40.2801 21.7899 40.99 22.8799 41.3985 23.5027C41.6553 23.8932 41.8971 24.2662 42.1061 24.5884L42.1065 24.589C42.3087 24.9009 42.48 25.1652 42.6043 25.3518C42.8572 25.7411 43.6838 26.9868 43.6838 26.9868L44.7827 28.6509L46.0955 30.6168C46.0955 30.6168 46.8444 31.7262 47.0972 32.0863C47.273 32.3366 47.7072 32.9866 48.0634 33.5199C48.2196 33.7537 48.3608 33.9652 48.4587 34.1106C48.7796 34.5874 49.4895 35.7066 49.4895 35.7066C49.4895 35.7066 50.0827 36.6019 50.6759 38.0033C51.2691 39.4048 51.5803 40.8062 51.3858 42.5579C51.1913 44.3097 50.7343 45.5262 50.3453 46.3047C49.9563 47.093 49.684 47.5991 49.188 48.475C48.7777 49.1996 48.4405 49.7445 48.0885 50.3133L47.9632 50.5159L47.8655 50.6744C47.4278 51.3848 46.7277 52.4553 46.222 53.2047C45.7163 53.9638 43.888 56.5817 43.2462 57.4965C42.5946 58.4113 40.8053 60.9708 40.8053 60.9708L60.109 60.9805V0H51.522H51.5025ZM41.301 53.1366L41.2623 53.1852L41.3204 53.0879L41.301 53.1366ZM91.1116 28.1157L102.519 43.7647H96.2366L87.776 31.7262L85.1795 34.5582V43.7549H80.2101V15.7658H85.1795V28.5731L96.1977 15.7658H101.935L91.1116 28.1157ZM118.623 35.9499V36.3781H118.633C118.633 38.2758 117.077 39.7162 113.547 39.7162C110.211 39.7162 107.41 38.4413 105.709 37.001L103.307 40.9619C105.475 42.7428 109.278 44.1832 113.313 44.1832C118.74 44.1832 123.592 42.2368 123.592 35.9888V35.4828C123.592 31.6386 121.375 28.9234 114.782 27.4442C114.541 27.3901 114.303 27.3379 114.069 27.2866C111.098 26.6352 108.733 26.1168 108.733 23.6V23.1329C108.733 21.6147 110.367 19.7559 113.897 19.7559C116.143 19.7559 117.972 20.0187 120.218 21.4979L122.542 17.6538C119.703 15.8339 116.873 15.3279 113.809 15.3279C106.243 15.3279 103.802 19.8338 103.802 23.2108V23.7168C103.802 29.9085 108.577 30.9314 113.065 31.8928C113.275 31.9378 113.484 31.9827 113.693 32.0279C116.873 32.7286 118.623 33.7018 118.623 35.9499ZM146.164 31.4537H129.058V13.7902H133.833V18.9579H141.399V13.7902H146.173V31.4537H146.164ZM133.59 35.1032H157.483V48.7669H152.592V39.2588H133.58V35.1032H133.59ZM133.823 27.415H141.389V22.9869H133.823V27.415ZM152.64 17.1185V12.2331H157.493V33.4683H152.64V28.5341H147.943V24.4175H152.64V21.2352H147.943V17.1185H152.64ZM184.606 15.3376H165.36H165.351V19.5321H172.644V23.6487C172.644 26.87 171.944 28.5049 169.659 31.0645C167.996 32.8843 166.012 34.821 163.921 36.6895L167.14 39.9887C169.28 38.0033 170.748 36.5338 172.187 35.0156C173.461 33.6921 174.784 32.1836 175.134 31.444H175.212C175.484 32.0668 176.602 33.3417 178.081 34.8599C179.52 36.3392 181.222 38.0423 182.894 39.5994L186.035 36.3392C184.1 34.5972 182.087 32.6216 180.414 30.792C178.09 28.2714 177.623 26.6753 177.623 23.6487V19.5321H184.606V15.3376ZM189.07 48.3387H194V12.2331H189.07V48.3387Z" fill="#231916"/>
</svg>
